<svg height='100px' width='100px'  fill="#D3D3D3" xmlns:dc="http://purl.org/dc/elements/1.1/" xmlns:cc="http://creativecommons.org/ns#" xmlns:rdf="http://www.w3.org/1999/02/22-rdf-syntax-ns#" xmlns:svg="http://www.w3.org/2000/svg" xmlns="http://www.w3.org/2000/svg" xmlns:sodipodi="http://sodipodi.sourceforge.net/DTD/sodipodi-0.dtd" xmlns:inkscape="http://www.inkscape.org/namespaces/inkscape" viewBox="0 0 8.4666667 8.4666667" version="1.1" x="0px" y="0px"><g><path style="color:#000000;font-style:normal;font-variant:normal;font-weight:normal;font-stretch:normal;font-size:medium;line-height:normal;font-family:sans-serif;font-variant-ligatures:normal;font-variant-position:normal;font-variant-caps:normal;font-variant-numeric:normal;font-variant-alternates:normal;font-feature-settings:normal;text-indent:0;text-align:start;text-decoration:none;text-decoration-line:none;text-decoration-style:solid;text-decoration-color:#000000;letter-spacing:normal;word-spacing:normal;text-transform:none;writing-mode:lr-tb;direction:ltr;text-orientation:mixed;dominant-baseline:auto;baseline-shift:baseline;text-anchor:start;white-space:normal;shape-padding:0;clip-rule:nonzero;display:inline;overflow:visible;visibility:visible;opacity:1;isolation:auto;mix-blend-mode:normal;color-interpolation:sRGB;color-interpolation-filters:linearRGB;solid-color:#000000;solid-opacity:1;vector-effect:none;fill:#D3D3D3;fill-opacity:1;fill-rule:nonzero;stroke:none;stroke-width:0.52916664;stroke-linecap:round;stroke-linejoin:miter;stroke-miterlimit:4;stroke-dasharray:none;stroke-dashoffset:0;stroke-opacity:1;color-rendering:auto;image-rendering:auto;shape-rendering:auto;text-rendering:auto;enable-background:accumulate" d="m 5.8161592,0.79235366 a 0.26460979,0.26460979 0 0 0 -0.0377,0.0041 H 1.0588493 A 0.26460979,0.26460979 0 0 0 0.79270933,1.0620706 v 5.5547001 c 0,0.581651 0.47714997,1.0567828 1.05884987,1.0567828 h 4.7635399 a 0.26460979,0.26460979 0 0 0 0.0951,-0.0098 c 0.5369603,-0.0491 0.9637602,-0.497867 0.9637602,-1.046965 V 4.4996066 A 0.26460979,0.26460979 0 0 0 7.4083493,4.2360567 H 6.0859491 V 1.0620906 A 0.26460979,0.26460979 0 0 0 5.8161992,0.79233966 Z M 1.3223793,1.3256546 h 4.23436 v 3.1253901 a 0.26460979,0.26460979 0 0 0 0,0.09147 v 2.0742928 c 0,0.1934732 0.0565,0.3728501 0.1483098,0.5291662 H 1.8515392 c -0.2977799,0 -0.5291599,-0.2316052 -0.5291599,-0.5291662 z m 0.7673899,1.05885 a 0.26500138,0.26500138 0 0 0 0.0274,0.529167 h 2.6442799 a 0.26464845,0.26464845 0 1 0 0,-0.529167 H 2.1171692 a 0.26460982,0.26460982 0 0 0 -0.0274,0 z m 0,1.0583331 a 0.26519611,0.26519611 0 0 0 0.0274,0.5296839 h 2.6442799 a 0.26484199,0.26484199 0 1 0 0,-0.5296839 H 2.1171692 a 0.26460982,0.26460982 0 0 0 -0.0274,0 z m 0.0274,1.0567829 a 0.26464845,0.26464845 0 1 0 0,0.5291669 h 2.6442799 a 0.26464845,0.26464845 0 1 0 0,-0.5291669 z m 3.96875,0.2656171 h 1.05885 v 1.8515668 c 0,0.2966831 -0.2305899,0.5278052 -0.5271,0.5291662 a 0.26460979,0.26460979 0 0 0 -0.003,0 c -0.2977798,0 -0.5291698,-0.2316052 -0.5291698,-0.5291662 z m -3.9951,0.792716 a 0.26460982,0.26460982 0 0 0 -10e-4,5.291e-4 0.26500132,0.26500132 0 0 0 0.0274,0.529167 h 2.64428 a 0.2646484,0.2646484 0 1 0 0,-0.529167 h -2.64428 a 0.26460982,0.26460982 0 0 0 -0.0263,-5.291e-4 z"></path></g></svg>