<svg height='100px' width='100px'  fill="#D3D3D3" xmlns="http://www.w3.org/2000/svg" xmlns:xlink="http://www.w3.org/1999/xlink" version="1.1" x="0px" y="0px" viewBox="0 0 100 100" style="enable-background:new 0 0 100 100;" xml:space="preserve"><style type="text/css">
	.st0{display:none;}
	.st1{display:inline;}
</style><g class="st0"><rect x="-1580.7" y="-1580.7" class="st1" width="6320" height="6320"></rect></g><g><g><path d="M92,73C92,73,92,73,92,73l-67.5-0.1c-0.9,0-1.8-0.7-1.9-1.6L12.1,17H2.5c-1.1,0-2-0.9-2-2s0.9-2,2-2h11.3    c0.9,0,1.8,0.7,1.9,1.6l10.5,54.3L92,69c1.1,0,2,0.9,2,2C94,72.1,93.1,73,92,73z"></path><path d="M92,62C92,62,92,62,92,62l-69.6-0.2c-1.1,0-2-0.9-2-2c0-1.1,0.9-2,2-2c0,0,0,0,0,0L90.4,58l4.8-29.8L15.9,28    c-1.1,0-2-0.9-2-2c0-1.1,0.9-2,2-2c0,0,0,0,0,0l81.6,0.2c0.6,0,1.1,0.3,1.5,0.7c0.4,0.4,0.5,1,0.4,1.6L94,60.4    C93.8,61.3,93,62,92,62z"></path><path d="M36.1,87c-4.2,0-7.6-3.4-7.6-7.6s3.4-7.6,7.6-7.6s7.6,3.4,7.6,7.6S40.3,87,36.1,87z M36.1,75.8c-2,0-3.6,1.6-3.6,3.6    s1.6,3.6,3.6,3.6s3.6-1.6,3.6-3.6S38.1,75.8,36.1,75.8z"></path><path d="M80.9,87c-4.2,0-7.6-3.4-7.6-7.6s3.4-7.6,7.6-7.6s7.6,3.4,7.6,7.6S85,87,80.9,87z M80.9,75.8c-2,0-3.6,1.6-3.6,3.6    s1.6,3.6,3.6,3.6s3.6-1.6,3.6-3.6S82.9,75.8,80.9,75.8z"></path><path d="M87,35.9H64.6c-1.1,0-2-0.9-2-2s0.9-2,2-2H87c1.1,0,2,0.9,2,2S88.1,35.9,87,35.9z"></path></g></g></svg>