<svg height='100px' width='100px'  fill="#D3D3D3" xmlns="http://www.w3.org/2000/svg" data-name="Layer 1" viewBox="0 0 48 48" x="0px" y="0px"><title>img</title><path d="M1,35a1,1,0,0,1-.39-.08A1,1,0,0,1,0,34V5A5,5,0,0,1,5,0H43a5,5,0,0,1,5,5V22a1,1,0,0,1-1.71.71l-8.09-8.09a1,1,0,0,0-1.41,0L21.27,30.14a1,1,0,0,1-.71.29,1,1,0,0,1-.71-.3l-6-6a1,1,0,0,0-1.42,0L1.7,34.71A1,1,0,0,1,1,35ZM5,2A3,3,0,0,0,2,5V31.61l9.06-8.92a3,3,0,0,1,4.25,0h0L20.57,28,35.38,13.21a3.08,3.08,0,0,1,4.24,0L46,19.59V5a3,3,0,0,0-3-3Z"></path><path d="M38,48H5a5,5,0,0,1-5-5V34a1,1,0,0,1,.3-.71l10.76-10.6a3,3,0,0,1,4.25,0L38.71,46.3A1,1,0,0,1,38,48ZM2,34.42V43a3,3,0,0,0,3,3H35.6L19.86,30.14h0l-6-6a1,1,0,0,0-1.42,0Z"></path><path d="M43,48H38a1,1,0,0,1-.71-.3L19.86,30.14a1,1,0,0,1,0-1.41L35.38,13.21a3.08,3.08,0,0,1,4.24,0l8.09,8.09A1,1,0,0,1,48,22V43A5,5,0,0,1,43,48Zm-4.58-2H43a3,3,0,0,0,3-3V22.41l-7.79-7.79h0a1,1,0,0,0-1.41,0L22,29.44Z"></path><path d="M11,16a5,5,0,1,1,5-5A5,5,0,0,1,11,16Zm0-8a3,3,0,1,0,3,3A3,3,0,0,0,11,8Z"></path></svg>