<svg height='100px' width='100px'  fill="#C3C3C3" xmlns="http://www.w3.org/2000/svg" xmlns:xlink="http://www.w3.org/1999/xlink" version="1.1" x="0px" y="0px" viewBox="0 0 50 50" style="enable-background:new 0 0 50 50;" xml:space="preserve"><g><path d="M13.8,29.4c-2.8,0-5,2.3-5,5c0,0.6,0.4,1,1,1c0.6,0,1-0.4,1-1c0-1.7,1.4-3,3-3c0.6,0,1-0.4,1-1   C14.8,29.9,14.4,29.4,13.8,29.4z"></path><path d="M43.2,12.7c-1.1-3.9-4.4-5.5-5.6-6.6c-0.4-0.3-1.1-0.3-1.4,0.2c-0.3,0.4-0.3,1.1,0.2,1.4c1.2,1.1,4,2.5,4.9,5.6l5.1,13.4   c1,3.2,0.6,5.6-0.3,6.5h-0.4c-0.6-4.7-4.7-8.4-9.5-8.4c-5,0-9.1,3.8-9.6,8.6h-3.2c-0.5-4.8-4.6-8.6-9.6-8.6c-4.9,0-8.9,3.7-9.5,8.4   H3.9c-0.9-0.9-1.3-3.3-0.3-6.4l5.1-13.5c0.9-3.1,3.7-4.5,4.9-5.5c0.4-0.3,0.5-1,0.2-1.4c-0.3-0.4-1-0.5-1.4-0.2   c-1.1,1-4.5,2.7-5.6,6.5L1.7,26.1c-1.3,4-0.8,7.5,1.2,8.9c0.2,0.1,0.4,0.2,0.6,0.2h0.7c0.4,5,4.5,8.9,9.6,8.9c5,0,9.1-3.8,9.6-8.6   h3.2c0.5,4.8,4.6,8.6,9.6,8.6c5.1,0,9.2-3.9,9.6-8.9h0.8c0.2,0,0.4-0.1,0.6-0.2c2-1.4,2.5-4.9,1.2-9L43.2,12.7z M13.8,42.1   c-4.2,0-7.6-3.4-7.6-7.6s3.4-7.6,7.6-7.6s7.6,3.4,7.6,7.6S18,42.1,13.8,42.1z M36.2,42.1c-4.2,0-7.6-3.4-7.6-7.6s3.4-7.6,7.6-7.6   s7.6,3.4,7.6,7.6S40.4,42.1,36.2,42.1z"></path></g></svg>