<svg height='100px' width='100px'  fill="#D3D3D3" xmlns="http://www.w3.org/2000/svg" xmlns:xlink="http://www.w3.org/1999/xlink" version="1.1" x="0px" y="0px" viewBox="0 0 100 100" style="enable-background:new 0 0 100 100;" xml:space="preserve"><path d="M48.1,26.4L59,15.5c3.2-3.2,7.3-5.2,11.7-5.6c6.4-0.5,12.5,2.3,16.4,7.6c1.7,2.4,2.8,5.1,3.2,8  c0.8,5.9-1.1,11.6-5.2,15.7L66.7,59.6c-3.5,3.5-8.1,5.4-13,5.4c-4.9,0-9.5-1.9-13-5.4c-0.5-0.5-1-1-1.4-1.6  c-0.9-1.1-0.8-2.8,0.3-3.8l0,0c1.2-1.2,3.2-1.1,4.3,0.2c0.3,0.4,0.6,0.7,1,1.1c2.4,2.4,5.5,3.7,8.9,3.7c3.3,0,6.5-1.3,8.9-3.7  l18.2-18.2c2.2-2.2,3.6-5,3.9-8c0.4-5-2.1-9.8-6.8-12.3c-0.6-0.3-1.2-0.6-1.8-0.8c-4.7-1.4-9.5-0.2-12.8,3.1l-8.3,8.3l-2.9,2.9  c-1.1,1.1-3,1.1-4.1,0l0,0C47,29.3,47,27.5,48.1,26.4z M50.2,75.9c1.1-1.1,1.1-3,0-4.1l0,0c-1.1-1.1-3-1.1-4.1,0l-11,11  c-3.3,3.3-8,4.5-12.7,3.1c-0.6-0.2-1.2-0.4-1.8-0.7c-7.9-4.2-9-14.3-3.2-20.1l18.5-18.5c2.4-2.4,5.5-3.7,8.9-3.7s6.5,1.3,8.9,3.7  c0.4,0.4,0.8,0.9,1.2,1.3c1,1.4,3,1.6,4.3,0.4l0.1-0.1c1-1,1.1-2.5,0.3-3.7c-0.5-0.7-1.1-1.4-1.7-2c-3.7-3.7-8.8-5.7-14.1-5.3  c-4.6,0.3-8.9,2.4-12.1,5.6L13.3,61c-7.1,7.1-7.1,18.8,0,25.9c3.5,3.5,8.1,5.4,13,5.4c4.9,0,9.5-1.9,13-5.4L50.2,75.9z"></path></svg>