<svg height='100px' width='100px'  fill="#D3D3D3" xmlns="http://www.w3.org/2000/svg" viewBox="0 0 64 64" x="0px" y="0px"><title>avatar-guy-handsome-man-hipster-beard</title><g><circle cx="26" cy="22" r="2"></circle><circle cx="38" cy="22" r="2"></circle><path d="M34.68,32.56a8.47,8.47,0,0,1-5.36,0l-.64,1.9a10.48,10.48,0,0,0,6.64,0Z"></path><path d="M46.18,44.08l-6.07-.72h0l-1.34-.16a13.1,13.1,0,0,0,5.37-6A10.24,10.24,0,0,0,45,33V25.86a4,4,0,0,0,.07-7.7L45.25,16a6,6,0,0,0-3.08-5.77,5.13,5.13,0,0,0-1-3.45A6.76,6.76,0,0,0,35.83,4h-12l-.73-1.45A1,1,0,0,0,22.32,2a1,1,0,0,0-.87.28l-.95,1a5.06,5.06,0,0,0-1.43,4.45,5.12,5.12,0,0,0,1.85,3.18A6,6,0,0,0,18.75,16l.18,2.16a4,4,0,0,0,.07,7.7v6.73a10.27,10.27,0,0,0,1.3,5l.36.66a13.21,13.21,0,0,0,4.8,4.93l-1.54.18h0l-6.08.72A9,9,0,0,0,10,53v9h2V58h6v4h2V57a1,1,0,0,0-1-1H12V53a7,7,0,0,1,6.06-6.93l4.61-.55,0,.1a10.1,10.1,0,0,0,18.56,0l0-.1,4.6.55A7,7,0,0,1,52,53v3H45a1,1,0,0,0-1,1v5h2V58h6v4h2V53A9,9,0,0,0,46.18,44.08ZM31,20.88,30.12,28H28.38a3,3,0,0,0-2.81,1.93l-.7,1.85L21,25.71V19.38L27.45,12h9.1L43,19.38v6.33l-3.87,6.08-.7-1.86A3,3,0,0,0,35.62,28H32.13L33,21.12ZM46,22a2,2,0,0,1-1,1.72V20.28A2,2,0,0,1,46,22Zm-2.8-5.43L39.2,12H41a1.08,1.08,0,0,0,.19,0,4,4,0,0,1,2.07,3.86ZM21.88,4.69l.38.76a1,1,0,0,0,.9.55H35.83a4.69,4.69,0,0,1,3.69,2A3.21,3.21,0,0,1,40.18,10h-16a3.13,3.13,0,0,1-2.25-5.31ZM23,11.89l0,0a5.46,5.46,0,0,0,1.2.14h.67l-4,4.57-.06-.74A4,4,0,0,1,23,11.89ZM18,22a2,2,0,0,1,1-1.72v3.44A2,2,0,0,1,18,22Zm4.41,15.28-.36-.66a8.24,8.24,0,0,1-1.05-4V29.43l2.18,3.43a2,2,0,0,0,1.68.92h.21a2,2,0,0,0,1.67-1.27l.7-1.86a1,1,0,0,1,.94-.64h7.24a1,1,0,0,1,.94.64l.7,1.86a2,2,0,0,0,3.56.36L43,29.43V33a8.21,8.21,0,0,1-.72,3.38,11.11,11.11,0,0,1-19.87.88ZM32,49.74a8.08,8.08,0,0,1-7.22-4.47l.93-.11A5.06,5.06,0,0,0,28,44.31a13,13,0,0,0,8.17.06,5,5,0,0,0,2.16.79l.93.11A8.08,8.08,0,0,1,32,49.74Z"></path></g></svg>