<svg xmlns="http://www.w3.org/2000/svg" xmlns:xlink="http://www.w3.org/1999/xlink" width="100" height="100" viewBox="0 0 100 100"><g transform="translate(50 50) scale(-0.69 0.69) rotate(-45) translate(-50 -50)" style="fill:#C3C3C3"><svg fill="#C3C3C3" xmlns="http://www.w3.org/2000/svg" xmlns:xlink="http://www.w3.org/1999/xlink" version="1.1" x="0px" y="0px" viewBox="0 0 50 50" style="enable-background:new 0 0 50 50;" xml:space="preserve"><g><path d="M8.2,26.9c3.6,3.4,12.6,14.2,14.1,18.1c0.1,0.2,0.3,0.7,0.9,0.7c0.3,0,0.6-0.2,0.8-0.4C29.8,36.7,34.2,31,38.3,27   c1.1-1,1.2-2.8,0.8-3.5C34.8,16.5,32.9,9.7,33.4,3c0.1-0.8-0.9-2-2.3-2H15.3C13.9,1,13,2.2,13,3c0.3,6-1.6,12.9-5.7,20.4   C7,24.2,7.1,25.9,8.2,26.9z M23.2,27C23.2,27,23.2,27,23.2,27L23.2,27c-1.8,0-3.3-1.5-3.3-3.2c0-1.8,1.5-3.2,3.2-3.2   c1.8,0,3.2,1.5,3.2,3.2C26.5,25.5,25,27,23.2,27z M9.2,24.3c4.1-7.7,6.1-14.8,5.9-21.1C15.1,3.1,15.2,3,15.3,3h15.8   c0.1,0,0.2,0.1,0.3,0.1c-0.5,6.9,1.5,14.1,5.9,21.3c0.1,0.4-0.1,0.9-0.4,1.2c-3.8,3.7-7.7,8.7-12.7,15.9V28.9   c2.4-0.5,4.2-2.6,4.2-5.1c0-2.9-2.3-5.2-5.2-5.2S18,20.8,18,23.7c0,2.5,1.8,4.7,4.2,5.1v12c-3.4-5.2-10-12.8-12.7-15.4   C9.2,25.2,9.1,24.7,9.2,24.3z"></path><path d="M22.2,48c0,0.6,0.4,1,1,1h18.6c0.6,0,1-0.4,1-1c0-0.6-0.4-1-1-1H23.2C22.7,47,22.2,47.4,22.2,48z"></path></g></svg></g></svg>