<svg height='100px' width='100px'  fill="#C3C3C3" xmlns="http://www.w3.org/2000/svg" xmlns:xlink="http://www.w3.org/1999/xlink" version="1.1" x="0px" y="0px" viewBox="0 0 50 50" style="enable-background:new 0 0 50 50;" xml:space="preserve"><g><path d="M30.7,26.3l0.1,0c0.5,0.2,1.1,0,1.3-0.6c0.2-0.5,0-1.1-0.6-1.3l-2.8-1.1c-0.2-0.1-0.5-0.1-0.8,0c-0.2,0.1-0.4,0.3-0.5,0.5   l-1.1,2.8c-0.2,0.5,0,1.1,0.6,1.3c0.5,0.2,1.1,0,1.3-0.6l0.3-0.8l3.1,5.4c0.3,0.5-0.1,1.1-0.6,1.1h-1.6c-0.6,0-1,0.4-1,1   c0,0.6,0.4,1,1,1H31c2.1,0,3.4-2.3,2.4-4.1L30.7,26.3z"></path><path d="M27.4,22.6c0.5-0.3,0.6-0.9,0.4-1.4L27.6,21c-0.5-0.9-1.4-1.4-2.4-1.4h0c-1,0-1.9,0.5-2.4,1.4l-2.8,4.9L19.7,25   c-0.2-0.5-0.8-0.8-1.3-0.6c-0.5,0.2-0.8,0.8-0.6,1.3l1.1,2.8c0.2,0.5,0.9,0.8,1.4,0.5L23,28c0.5-0.2,0.8-0.8,0.6-1.3   c-0.2-0.5-0.8-0.8-1.3-0.6l-0.1,0l2.4-4.1c0.2-0.3,0.5-0.4,0.6-0.4c0.1,0,0.4,0,0.6,0.4l0.1,0.2C26.3,22.7,26.9,22.9,27.4,22.6z"></path><path d="M23.5,31.3c-0.4-0.4-1-0.4-1.4,0c-0.4,0.4-0.4,1,0,1.4l0.4,0.4h-3.1c-0.4,0-0.6-0.3-0.6-0.4c-0.1-0.1-0.2-0.4,0-0.7   c0.3-0.5,0.1-1.1-0.4-1.4c-0.5-0.3-1.1-0.1-1.4,0.4c-0.5,0.9-0.5,1.9,0,2.7c0.5,0.9,1.4,1.4,2.4,1.4h3.1l-0.4,0.4   c-0.4,0.4-0.4,1,0,1.4c0.4,0.4,1,0.4,1.4,0l2.1-2.1c0.2-0.2,0.3-0.4,0.3-0.7c0-0.3-0.1-0.5-0.3-0.7L23.5,31.3z"></path><path d="M46,2.2H4c-1.7,0-3,1.3-3,3v2.9c0,1.7,1.3,3,3,3h0.2c0.1,0.5-0.7-3.5,6.7,32.6c0.1,1.5,1.7,2.6,4.9,3.3   c2.5,0.5,5.8,0.8,9.3,0.8c3.3,0,14.1-0.3,14.3-4.1l6.7-32.5c0,0,0-0.1,0-0.1c1.5-0.1,2.7-1.4,2.7-3V5.2C49,3.6,47.7,2.2,46,2.2z    M37.5,43.4c0,0.1,0,0.1,0,0.2c0,0.6-3.8,2.2-12.3,2.2c-8.5,0-12.3-1.6-12.3-2.2c0-0.1,0-0.1,0-0.2L6.3,11.1h38L37.5,43.4z M47,8.1   c0,0.6-0.4,1-1,1H4c-0.6,0-1-0.4-1-1V5.2c0-0.6,0.4-1,1-1h42c0.6,0,1,0.4,1,1V8.1z"></path></g></svg>